<?xml version="1.0" encoding="utf-8"?>
<!-- Generator: Adobe Illustrator 24.2.0, SVG Export Plug-In . SVG Version: 6.00 Build 0)  -->
<svg version="1.1" id="Layer_1" xmlns="http://www.w3.org/2000/svg" xmlns:xlink="http://www.w3.org/1999/xlink" x="0px" y="0px"
	 viewBox="0 0 96 96" style="enable-background:new 0 0 96 96;" xml:space="preserve">
<style type="text/css">
	.st0{fill:#020202;}
</style>
<g id="XMLID_1_">
	<path id="XMLID_3_" class="st0" d="M45.8,43.3c0.2-0.1,0.4-0.1,0.7-0.1c0.1,0,0.3,0,0.6,0s0.8,0.1,1.4,0.1L46,35.7
		c-0.7-1.9-1.2-3.2-1.6-3.8C44,31.3,43.6,31,43.2,31c-0.3,0-0.6,0.1-0.8,0.4s-0.3,0.6-0.3,1.1c0,0.8,0.3,2.1,0.9,3.9
		c0.6,1.9,1.4,4.3,2.6,7.3C45.5,43.5,45.7,43.4,45.8,43.3z"/>
	<path id="XMLID_4_" class="st0" d="M48.8,53.2c0.4-0.5,0.8-0.9,1.2-1.3c0.4-0.4,0.9-0.8,1.4-1.1c-0.7,0-1.4-0.1-2-0.2
		c-0.6-0.1-1.2-0.3-1.8-0.5c0.3,0.5,0.5,1,0.7,1.6C48.5,52.2,48.7,52.7,48.8,53.2z"/>
	<path id="XMLID_5_" class="st0" d="M57.6,46.9c-0.7-0.6-2-1.1-3.9-1.5s-4-0.7-6.1-0.7c-0.6,0-1,0.1-1.2,0.3S46,45.5,46,46
		c0,1.1,0.6,1.9,1.9,2.4c1.2,0.5,3.2,0.7,6,0.7h1c0.2,0,0.4,0.1,0.6,0.3c0.1,0.2,0.2,0.4,0.3,0.8c-0.3,0.3-0.8,0.6-1.7,0.9
		c-0.9,0.3-1.5,0.7-2,1c-1,0.7-1.8,1.6-2.4,2.6c-0.6,1-0.9,1.9-0.9,2.8c0,0.5,0.1,1.2,0.4,1.9c0.3,0.8,0.4,1.2,0.4,1.4V61v0.2
		c-0.7,0-1.3-0.5-1.7-1.3s-0.6-1.8-0.6-3.2v-0.2c-0.1,0.1-0.3,0.2-0.4,0.2c-0.1,0-0.3,0.1-0.4,0.1c-0.1,0-0.3,0-0.4,0
		c-0.1,0-0.3-0.1-0.4-0.1c0,0.2,0.1,0.4,0.1,0.5c0,0.2,0,0.3,0,0.4c0,0.6-0.2,1.1-0.7,1.6c-0.5,0.4-1,0.6-1.7,0.6
		c-1,0-2.1-0.5-3.1-1.5c-1.1-1-1.6-2-1.6-2.9c0-0.2,0-0.3,0.1-0.5c0-0.1,0.1-0.3,0.2-0.4c0.2,0.3,0.5,0.7,1,1.2
		c1.1,1.5,2.1,2.2,3,2.2c0.3,0,0.6-0.1,0.8-0.3s0.4-0.4,0.4-0.6c0-0.2-0.2-0.7-0.5-1.2c-0.3-0.6-0.8-1.2-1.3-1.9
		c-0.7-0.8-1.2-1.4-1.6-1.8c-0.4-0.4-0.8-0.6-1-0.6c-0.6,0-1.1,0.3-1.6,0.9c-0.5,0.6-0.7,1.3-0.7,2.2c0,0.7,0.2,1.4,0.5,2.2
		s0.8,1.7,1.5,2.5c1,1.3,2.2,2.3,3.6,3c1.4,0.7,3,1,4.7,1c3.2,0,5.8-1.2,8-3.6c2.1-2.4,3.2-5.3,3.2-8.9c0-1.1-0.1-2-0.2-2.6
		C58.3,47.7,58,47.2,57.6,46.9z"/>
	<path id="XMLID_6_" class="st0" d="M42.7,52.1c0.7,1,1.4,1.7,2,2.3c0.6,0.5,1.1,0.8,1.5,0.8c0.3,0,0.5-0.1,0.8-0.4
		c0.2-0.3,0.3-0.5,0.3-0.8s-0.2-1-0.7-2.2c-0.4-1.1-1-2.2-1.7-3.3c-0.5-0.8-1-1.4-1.4-1.8c-0.5-0.4-0.9-0.6-1.3-0.6
		c-0.3,0-0.7,0.2-1.1,0.6c-0.4,0.4-0.6,0.8-0.6,1.2s0.2,1,0.6,1.8C41.4,50.4,42,51.3,42.7,52.1z"/>
	<path id="XMLID_9_" class="st0" d="M48,20.5c-15.2,0-27.5,12.3-27.5,27.5S32.8,75.5,48,75.5S75.5,63.2,75.5,48S63.2,20.5,48,20.5z
		 M56.7,61.1c-2.5,2.6-5.6,3.9-9.5,3.9c-1.5,0-3-0.3-4.4-0.8s-2.7-1.3-3.7-2.3c-1.2-1.1-2.1-2.2-2.6-3.4c-0.6-1.2-0.9-2.4-0.9-3.7
		c0-1.4,0.3-2.5,0.9-3.3c0.6-0.8,1.6-1.3,2.9-1.6c-0.2-0.6-0.4-1.1-0.5-1.4c-0.1-0.4-0.2-0.7-0.2-0.9c0-0.7,0.4-1.5,1.2-2.3
		s1.5-1.1,2.2-1.1c0.3,0,0.6,0.1,0.9,0.2c0.3,0.1,0.7,0.3,1.1,0.5c-1.3-3.6-2.2-6.3-2.7-8.2c-0.6-1.9-0.9-3.3-0.9-4
		c0-1,0.3-1.8,0.8-2.4s1.2-0.9,2.1-0.9c1.5,0,3.5,3.4,5.8,10.3c0.4,1.2,0.7,2.1,0.9,2.7c0.2-0.5,0.4-1.2,0.8-2.2
		C53.2,33.4,55.3,30,57,30c0.8,0,1.5,0.3,2,0.8c0.5,0.6,0.7,1.3,0.7,2.3c0,0.7-0.3,2-0.8,3.9s-1.4,4.4-2.5,7.5
		c1.5,0.3,2.5,0.9,3.1,1.9s0.9,2.5,0.9,4.5C60.4,55.1,59.2,58.5,56.7,61.1z"/>
	<path id="XMLID_10_" class="st0" d="M57.2,36.9c0.6-1.9,0.9-3.1,0.9-3.6s-0.1-0.8-0.3-1.1s-0.5-0.4-0.8-0.4c-0.5,0-0.9,0.4-1.4,1.1
		c-0.5,0.8-1,2-1.6,3.7l-2.4,7.1l3.1,0.5C55.7,41.2,56.6,38.8,57.2,36.9z"/>
</g>
</svg>
